<svg xmlns="http://www.w3.org/2000/svg" width="26.105" height="27.27" viewBox="0 0 26.105 27.27">
  <path id="cog" d="M27.083,17.481l-2.342-1.353a10.6,10.6,0,0,0,0-3.86l2.342-1.353a.665.665,0,0,0,.3-.769,13.691,13.691,0,0,0-3.007-5.2.662.662,0,0,0-.814-.127L21.222,6.172a10.37,10.37,0,0,0-3.343-1.93v-2.7A.659.659,0,0,0,17.362.9a13.821,13.821,0,0,0-6,0,.658.658,0,0,0-.517.644v2.7A10.7,10.7,0,0,0,7.5,6.177L5.163,4.825a.653.653,0,0,0-.814.127,13.6,13.6,0,0,0-3.007,5.2.656.656,0,0,0,.3.769l2.342,1.352a10.6,10.6,0,0,0,0,3.86L1.644,17.487a.665.665,0,0,0-.3.769,13.691,13.691,0,0,0,3.007,5.2.662.662,0,0,0,.814.127L7.5,22.232a10.37,10.37,0,0,0,3.343,1.93v2.7a.659.659,0,0,0,.517.644,13.821,13.821,0,0,0,6,0,.658.658,0,0,0,.517-.644v-2.7a10.7,10.7,0,0,0,3.343-1.93l2.342,1.353a.653.653,0,0,0,.814-.127,13.6,13.6,0,0,0,3.007-5.2A.678.678,0,0,0,27.083,17.481ZM14.361,18.6a4.4,4.4,0,1,1,4.4-4.4A4.4,4.4,0,0,1,14.361,18.6Z" transform="translate(-1.311 -0.569)" fill="#fff"/>
</svg>
