<svg xmlns="http://www.w3.org/2000/svg" width="14.028" height="14.025" viewBox="0 0 14.028 14.025">
  <path id="instagram" d="M7.011,5.654a3.6,3.6,0,1,0,3.6,3.6A3.59,3.59,0,0,0,7.011,5.654Zm0,5.934A2.338,2.338,0,1,1,9.349,9.25a2.342,2.342,0,0,1-2.338,2.338Zm4.582-6.081a.839.839,0,1,1-.839-.839A.837.837,0,0,1,11.593,5.507Zm2.382.851a4.152,4.152,0,0,0-1.133-2.939A4.177,4.177,0,0,0,9.9,2.286c-1.158-.066-4.629-.066-5.787,0a4.173,4.173,0,0,0-2.939,1.13A4.163,4.163,0,0,0,.045,6.355c-.066,1.158-.066,4.629,0,5.787A4.152,4.152,0,0,0,1.178,15.08a4.182,4.182,0,0,0,2.939,1.133c1.158.066,4.629.066,5.787,0a4.152,4.152,0,0,0,2.939-1.133,4.177,4.177,0,0,0,1.133-2.939c.066-1.158.066-4.626,0-5.784Zm-1.5,7.026a2.366,2.366,0,0,1-1.333,1.333A15.45,15.45,0,0,1,7.012,15a15.57,15.57,0,0,1-4.134-.282,2.366,2.366,0,0,1-1.333-1.333A15.45,15.45,0,0,1,1.263,9.25a15.57,15.57,0,0,1,.282-4.134A2.366,2.366,0,0,1,2.878,3.783,15.45,15.45,0,0,1,7.012,3.5a15.57,15.57,0,0,1,4.134.282,2.366,2.366,0,0,1,1.333,1.333,15.45,15.45,0,0,1,.282,4.134A15.441,15.441,0,0,1,12.479,13.384Z" transform="translate(0.004 -2.237)" fill="#fff"/>
</svg>
