<svg xmlns="http://www.w3.org/2000/svg" width="14.025" height="14.025" viewBox="0 0 14.025 14.025">
  <path id="twitter-square" d="M12.523,2.25H1.5A1.5,1.5,0,0,0,0,3.753v11.02a1.5,1.5,0,0,0,1.5,1.5h11.02a1.5,1.5,0,0,0,1.5-1.5V3.753A1.5,1.5,0,0,0,12.523,2.25ZM10.992,7.222C11,7.309,11,7.4,11,7.488A5.8,5.8,0,0,1,5.156,13.33,5.813,5.813,0,0,1,2,12.409a4.345,4.345,0,0,0,.495.025,4.114,4.114,0,0,0,2.548-.877,2.055,2.055,0,0,1-1.919-1.424,2.222,2.222,0,0,0,.927-.037A2.053,2.053,0,0,1,2.411,8.08V8.055a2.055,2.055,0,0,0,.927.26,2.049,2.049,0,0,1-.914-1.709A2.026,2.026,0,0,1,2.7,5.569,5.829,5.829,0,0,0,6.935,7.717a2.058,2.058,0,0,1,3.5-1.875,4.027,4.027,0,0,0,1.3-.495,2.048,2.048,0,0,1-.9,1.13,4.09,4.09,0,0,0,1.183-.319,4.325,4.325,0,0,1-1.03,1.065Z" transform="translate(0 -2.25)" fill="#fff"/>
</svg>
