<svg xmlns="http://www.w3.org/2000/svg" width="15.396" height="10.825" viewBox="0 0 15.396 10.825">
  <path id="youtube" d="M16.007,5.694a1.935,1.935,0,0,0-1.361-1.37A45.7,45.7,0,0,0,8.631,4a45.711,45.711,0,0,0-6.015.324,1.935,1.935,0,0,0-1.361,1.37,20.3,20.3,0,0,0-.322,3.73,20.3,20.3,0,0,0,.322,3.73A1.906,1.906,0,0,0,2.616,14.5a45.711,45.711,0,0,0,6.015.324,45.711,45.711,0,0,0,6.015-.324,1.906,1.906,0,0,0,1.361-1.348,20.3,20.3,0,0,0,.322-3.73,20.3,20.3,0,0,0-.322-3.73ZM7.057,11.713V7.134L11.08,9.423Z" transform="translate(-0.933 -4)" fill="#fff"/>
</svg>
